<?xml version="1.0" encoding="UTF-8" standalone="no"?>
<!DOCTYPE svg PUBLIC "-//W3C//DTD SVG 1.1//EN"
 "http://www.w3.org/Graphics/SVG/1.1/DTD/svg11.dtd">
<!-- Generated by graphviz version 14.1.4 (20260321.0153)
 -->
<!-- Pages: 1 -->
<svg width="806pt" height="280pt"
 viewBox="0.00 0.00 806.00 280.00" xmlns="http://www.w3.org/2000/svg" xmlns:xlink="http://www.w3.org/1999/xlink">
<g id="graph0" class="graph" transform="scale(1 1) rotate(0) translate(4 276)">
<polygon fill="white" stroke="none" points="-4,4 -4,-276 802.25,-276 802.25,4 -4,4"/>
<!-- 965e8d87f96ccf564726ff5e97ea4d6b18731d9b762ef9510479f628bc85837e -->
<g id="node1" class="node">
<title>965e8d87f96ccf564726ff5e97ea4d6b18731d9b762ef9510479f628bc85837e</title>
<polygon fill="white" stroke="black" points="594.25,-272 204,-272 204,-231 594.25,-231 594.25,-272"/>
<text xml:space="preserve" text-anchor="middle" x="399.12" y="-254.7" font-family="Times,serif" font-size="14.00">DN: CN=6b17188d&#45;d</text>
<text xml:space="preserve" text-anchor="middle" x="399.12" y="-238.2" font-family="Times,serif" font-size="14.00">Valid: 2026&#45;08&#45;14T15:04:47+00:00 → 2026&#45;08&#45;28T15:04:47+00:00</text>
</g>
<!-- 965e8d87f96ccf564726ff5e97ea4d6b18731d9b762ef9510479f628bc85837e&#45;&gt;965e8d87f96ccf564726ff5e97ea4d6b18731d9b762ef9510479f628bc85837e -->
<g id="edge1" class="edge">
<title>965e8d87f96ccf564726ff5e97ea4d6b18731d9b762ef9510479f628bc85837e&#45;&gt;965e8d87f96ccf564726ff5e97ea4d6b18731d9b762ef9510479f628bc85837e</title>
<path fill="none" stroke="black" d="M594.69,-261.24C605.69,-258.88 612.25,-255.64 612.25,-251.5 612.25,-248.98 609.81,-246.79 605.42,-244.93"/>
<polygon fill="black" stroke="black" points="606.72,-241.66 596.14,-242.19 604.74,-248.38 606.72,-241.66"/>
</g>
<!-- 77c4b5b12b79887b8c709df826cff89a7268071593de5cc84053b8c00302b2fb -->
<g id="node2" class="node">
<title>77c4b5b12b79887b8c709df826cff89a7268071593de5cc84053b8c00302b2fb</title>
<polygon fill="white" stroke="black" points="594.25,-195 204,-195 204,-154 594.25,-154 594.25,-195"/>
<text xml:space="preserve" text-anchor="middle" x="399.12" y="-177.7" font-family="Times,serif" font-size="14.00">DN: CN=f3ec133b&#45;4</text>
<text xml:space="preserve" text-anchor="middle" x="399.12" y="-161.2" font-family="Times,serif" font-size="14.00">Valid: 2026&#45;08&#45;14T15:04:47+00:00 → 2026&#45;08&#45;28T15:04:47+00:00</text>
</g>
<!-- 965e8d87f96ccf564726ff5e97ea4d6b18731d9b762ef9510479f628bc85837e&#45;&gt;77c4b5b12b79887b8c709df826cff89a7268071593de5cc84053b8c00302b2fb -->
<g id="edge2" class="edge">
<title>965e8d87f96ccf564726ff5e97ea4d6b18731d9b762ef9510479f628bc85837e&#45;&gt;77c4b5b12b79887b8c709df826cff89a7268071593de5cc84053b8c00302b2fb</title>
<path fill="none" stroke="black" d="M399.12,-230.79C399.12,-223.45 399.12,-214.91 399.12,-206.78"/>
<polygon fill="black" stroke="black" points="402.63,-206.85 399.13,-196.85 395.63,-206.85 402.63,-206.85"/>
</g>
<!-- 3cf372288714b52298222bb1f8cf51dce3f1e60147ec53f9ee3dc28e8766c734 -->
<g id="node3" class="node">
<title>3cf372288714b52298222bb1f8cf51dce3f1e60147ec53f9ee3dc28e8766c734</title>
<polygon fill="white" stroke="black" points="390.25,-118 0,-118 0,-77 390.25,-77 390.25,-118"/>
<text xml:space="preserve" text-anchor="middle" x="195.12" y="-100.7" font-family="Times,serif" font-size="14.00">DN: CN=fe46739d&#45;0</text>
<text xml:space="preserve" text-anchor="middle" x="195.12" y="-84.2" font-family="Times,serif" font-size="14.00">Valid: 2026&#45;08&#45;14T15:04:47+00:00 → 2026&#45;08&#45;28T15:04:47+00:00</text>
</g>
<!-- 77c4b5b12b79887b8c709df826cff89a7268071593de5cc84053b8c00302b2fb&#45;&gt;3cf372288714b52298222bb1f8cf51dce3f1e60147ec53f9ee3dc28e8766c734 -->
<g id="edge3" class="edge">
<title>77c4b5b12b79887b8c709df826cff89a7268071593de5cc84053b8c00302b2fb&#45;&gt;3cf372288714b52298222bb1f8cf51dce3f1e60147ec53f9ee3dc28e8766c734</title>
<path fill="none" stroke="black" d="M344.99,-153.6C318.94,-144.02 287.5,-132.46 260.16,-122.41"/>
<polygon fill="black" stroke="black" points="261.52,-119.18 250.93,-119.02 259.11,-125.75 261.52,-119.18"/>
</g>
<!-- 2caf1b256bcbb327aea8d1442ba12e0fc6582b3c2980ee9f31d4ae3a62f62673 -->
<g id="node4" class="node">
<title>2caf1b256bcbb327aea8d1442ba12e0fc6582b3c2980ee9f31d4ae3a62f62673</title>
<polygon fill="white" stroke="black" points="798.25,-118 408,-118 408,-77 798.25,-77 798.25,-118"/>
<text xml:space="preserve" text-anchor="middle" x="603.12" y="-100.7" font-family="Times,serif" font-size="14.00">DN: CN=445b5f29&#45;8</text>
<text xml:space="preserve" text-anchor="middle" x="603.12" y="-84.2" font-family="Times,serif" font-size="14.00">Valid: 2026&#45;08&#45;14T15:04:47+00:00 → 2026&#45;08&#45;28T15:04:47+00:00</text>
</g>
<!-- 77c4b5b12b79887b8c709df826cff89a7268071593de5cc84053b8c00302b2fb&#45;&gt;2caf1b256bcbb327aea8d1442ba12e0fc6582b3c2980ee9f31d4ae3a62f62673 -->
<g id="edge4" class="edge">
<title>77c4b5b12b79887b8c709df826cff89a7268071593de5cc84053b8c00302b2fb&#45;&gt;2caf1b256bcbb327aea8d1442ba12e0fc6582b3c2980ee9f31d4ae3a62f62673</title>
<path fill="none" stroke="black" d="M453.26,-153.6C479.31,-144.02 510.75,-132.46 538.09,-122.41"/>
<polygon fill="black" stroke="black" points="539.14,-125.75 547.32,-119.02 536.73,-119.18 539.14,-125.75"/>
</g>
<!-- f7ead9a254aa6df1d9f9699599153461e2f0377749ca87db446a936562d9e744 -->
<g id="node5" class="node">
<title>f7ead9a254aa6df1d9f9699599153461e2f0377749ca87db446a936562d9e744</title>
<polygon fill="white" stroke="black" points="798.25,-41 408,-41 408,0 798.25,0 798.25,-41"/>
<text xml:space="preserve" text-anchor="middle" x="603.12" y="-23.7" font-family="Times,serif" font-size="14.00">DN: CN=8d8c0d73&#45;3</text>
<text xml:space="preserve" text-anchor="middle" x="603.12" y="-7.2" font-family="Times,serif" font-size="14.00">Valid: 2026&#45;08&#45;14T15:04:47+00:00 → 2026&#45;08&#45;28T15:04:47+00:00</text>
</g>
<!-- 2caf1b256bcbb327aea8d1442ba12e0fc6582b3c2980ee9f31d4ae3a62f62673&#45;&gt;f7ead9a254aa6df1d9f9699599153461e2f0377749ca87db446a936562d9e744 -->
<g id="edge5" class="edge">
<title>2caf1b256bcbb327aea8d1442ba12e0fc6582b3c2980ee9f31d4ae3a62f62673&#45;&gt;f7ead9a254aa6df1d9f9699599153461e2f0377749ca87db446a936562d9e744</title>
<path fill="none" stroke="black" d="M603.12,-76.79C603.12,-69.45 603.12,-60.91 603.12,-52.78"/>
<polygon fill="black" stroke="black" points="606.63,-52.85 603.13,-42.85 599.63,-52.85 606.63,-52.85"/>
</g>
</g>
</svg>
